<?xml version="1.0" encoding="utf-8" standalone="no"?>
<!DOCTYPE svg PUBLIC "-//W3C//DTD SVG 1.1//EN"
  "http://www.w3.org/Graphics/SVG/1.1/DTD/svg11.dtd">
<svg xmlns:xlink="http://www.w3.org/1999/xlink" width="479.61pt" height="360pt" viewBox="0 0 479.61 360" xmlns="http://www.w3.org/2000/svg" version="1.1">
 <metadata>
  <rdf:RDF xmlns:dc="http://purl.org/dc/elements/1.1/" xmlns:cc="http://creativecommons.org/ns#" xmlns:rdf="http://www.w3.org/1999/02/22-rdf-syntax-ns#">
   <cc:Work>
    <dc:type rdf:resource="http://purl.org/dc/dcmitype/StillImage"/>
    <dc:date>2024-08-10T22:05:47.144948</dc:date>
    <dc:format>image/svg+xml</dc:format>
    <dc:creator>
     <cc:Agent>
      <dc:title>Matplotlib v3.9.0, https://matplotlib.org/</dc:title>
     </cc:Agent>
    </dc:creator>
   </cc:Work>
  </rdf:RDF>
 </metadata>
 <defs>
  <style type="text/css">*{stroke-linejoin: round; stroke-linecap: butt}</style>
 </defs>
 <g id="figure_1">
  <g id="patch_1">
   <path d="M 0 360 
L 479.61 360 
L 479.61 0 
L 0 0 
z
" style="fill: #ffffff"/>
  </g>
  <g id="axes_1">
   <g id="patch_2">
    <path d="M 70.74 309.78 
L 457.61923 309.78 
L 457.61923 29.04 
L 70.74 29.04 
z
" style="fill: #eaeaf2"/>
   </g>
   <g id="matplotlib.axis_1">
    <g id="xtick_1">
     <g id="line2d_1">
      <path d="M 88.32542 309.78 
L 88.32542 29.04 
" clip-path="url(#p86ff391a6a)" style="fill: none; stroke: #ffffff; stroke-linecap: round"/>
     </g>
     <g id="text_1">
      <!-- 0 -->
      <g style="fill: #262626" transform="translate(84.826045 327.638281) scale(0.11 -0.11)">
       <defs>
        <path id="DejaVuSans-30" d="M 2034 4250 
Q 1547 4250 1301 3770 
Q 1056 3291 1056 2328 
Q 1056 1369 1301 889 
Q 1547 409 2034 409 
Q 2525 409 2770 889 
Q 3016 1369 3016 2328 
Q 3016 3291 2770 3770 
Q 2525 4250 2034 4250 
z
M 2034 4750 
Q 2819 4750 3233 4129 
Q 3647 3509 3647 2328 
Q 3647 1150 3233 529 
Q 2819 -91 2034 -91 
Q 1250 -91 836 529 
Q 422 1150 422 2328 
Q 422 3509 836 4129 
Q 1250 4750 2034 4750 
z
" transform="scale(0.015625)"/>
       </defs>
       <use xlink:href="#DejaVuSans-30"/>
      </g>
     </g>
    </g>
    <g id="xtick_2">
     <g id="line2d_2">
      <path d="M 140.897675 309.78 
L 140.897675 29.04 
" clip-path="url(#p86ff391a6a)" style="fill: none; stroke: #ffffff; stroke-linecap: round"/>
     </g>
     <g id="text_2">
      <!-- 100 -->
      <g style="fill: #262626" transform="translate(130.39955 327.638281) scale(0.11 -0.11)">
       <defs>
        <path id="DejaVuSans-31" d="M 794 531 
L 1825 531 
L 1825 4091 
L 703 3866 
L 703 4441 
L 1819 4666 
L 2450 4666 
L 2450 531 
L 3481 531 
L 3481 0 
L 794 0 
L 794 531 
z
" transform="scale(0.015625)"/>
       </defs>
       <use xlink:href="#DejaVuSans-31"/>
       <use xlink:href="#DejaVuSans-30" x="63.623047"/>
       <use xlink:href="#DejaVuSans-30" x="127.246094"/>
      </g>
     </g>
    </g>
    <g id="xtick_3">
     <g id="line2d_3">
      <path d="M 193.469931 309.78 
L 193.469931 29.04 
" clip-path="url(#p86ff391a6a)" style="fill: none; stroke: #ffffff; stroke-linecap: round"/>
     </g>
     <g id="text_3">
      <!-- 200 -->
      <g style="fill: #262626" transform="translate(182.971806 327.638281) scale(0.11 -0.11)">
       <defs>
        <path id="DejaVuSans-32" d="M 1228 531 
L 3431 531 
L 3431 0 
L 469 0 
L 469 531 
Q 828 903 1448 1529 
Q 2069 2156 2228 2338 
Q 2531 2678 2651 2914 
Q 2772 3150 2772 3378 
Q 2772 3750 2511 3984 
Q 2250 4219 1831 4219 
Q 1534 4219 1204 4116 
Q 875 4013 500 3803 
L 500 4441 
Q 881 4594 1212 4672 
Q 1544 4750 1819 4750 
Q 2544 4750 2975 4387 
Q 3406 4025 3406 3419 
Q 3406 3131 3298 2873 
Q 3191 2616 2906 2266 
Q 2828 2175 2409 1742 
Q 1991 1309 1228 531 
z
" transform="scale(0.015625)"/>
       </defs>
       <use xlink:href="#DejaVuSans-32"/>
       <use xlink:href="#DejaVuSans-30" x="63.623047"/>
       <use xlink:href="#DejaVuSans-30" x="127.246094"/>
      </g>
     </g>
    </g>
    <g id="xtick_4">
     <g id="line2d_4">
      <path d="M 246.042187 309.78 
L 246.042187 29.04 
" clip-path="url(#p86ff391a6a)" style="fill: none; stroke: #ffffff; stroke-linecap: round"/>
     </g>
     <g id="text_4">
      <!-- 300 -->
      <g style="fill: #262626" transform="translate(235.544062 327.638281) scale(0.11 -0.11)">
       <defs>
        <path id="DejaVuSans-33" d="M 2597 2516 
Q 3050 2419 3304 2112 
Q 3559 1806 3559 1356 
Q 3559 666 3084 287 
Q 2609 -91 1734 -91 
Q 1441 -91 1130 -33 
Q 819 25 488 141 
L 488 750 
Q 750 597 1062 519 
Q 1375 441 1716 441 
Q 2309 441 2620 675 
Q 2931 909 2931 1356 
Q 2931 1769 2642 2001 
Q 2353 2234 1838 2234 
L 1294 2234 
L 1294 2753 
L 1863 2753 
Q 2328 2753 2575 2939 
Q 2822 3125 2822 3475 
Q 2822 3834 2567 4026 
Q 2313 4219 1838 4219 
Q 1578 4219 1281 4162 
Q 984 4106 628 3988 
L 628 4550 
Q 988 4650 1302 4700 
Q 1616 4750 1894 4750 
Q 2613 4750 3031 4423 
Q 3450 4097 3450 3541 
Q 3450 3153 3228 2886 
Q 3006 2619 2597 2516 
z
" transform="scale(0.015625)"/>
       </defs>
       <use xlink:href="#DejaVuSans-33"/>
       <use xlink:href="#DejaVuSans-30" x="63.623047"/>
       <use xlink:href="#DejaVuSans-30" x="127.246094"/>
      </g>
     </g>
    </g>
    <g id="xtick_5">
     <g id="line2d_5">
      <path d="M 298.614442 309.78 
L 298.614442 29.04 
" clip-path="url(#p86ff391a6a)" style="fill: none; stroke: #ffffff; stroke-linecap: round"/>
     </g>
     <g id="text_5">
      <!-- 400 -->
      <g style="fill: #262626" transform="translate(288.116317 327.638281) scale(0.11 -0.11)">
       <defs>
        <path id="DejaVuSans-34" d="M 2419 4116 
L 825 1625 
L 2419 1625 
L 2419 4116 
z
M 2253 4666 
L 3047 4666 
L 3047 1625 
L 3713 1625 
L 3713 1100 
L 3047 1100 
L 3047 0 
L 2419 0 
L 2419 1100 
L 313 1100 
L 313 1709 
L 2253 4666 
z
" transform="scale(0.015625)"/>
       </defs>
       <use xlink:href="#DejaVuSans-34"/>
       <use xlink:href="#DejaVuSans-30" x="63.623047"/>
       <use xlink:href="#DejaVuSans-30" x="127.246094"/>
      </g>
     </g>
    </g>
    <g id="xtick_6">
     <g id="line2d_6">
      <path d="M 351.186698 309.78 
L 351.186698 29.04 
" clip-path="url(#p86ff391a6a)" style="fill: none; stroke: #ffffff; stroke-linecap: round"/>
     </g>
     <g id="text_6">
      <!-- 500 -->
      <g style="fill: #262626" transform="translate(340.688573 327.638281) scale(0.11 -0.11)">
       <defs>
        <path id="DejaVuSans-35" d="M 691 4666 
L 3169 4666 
L 3169 4134 
L 1269 4134 
L 1269 2991 
Q 1406 3038 1543 3061 
Q 1681 3084 1819 3084 
Q 2600 3084 3056 2656 
Q 3513 2228 3513 1497 
Q 3513 744 3044 326 
Q 2575 -91 1722 -91 
Q 1428 -91 1123 -41 
Q 819 9 494 109 
L 494 744 
Q 775 591 1075 516 
Q 1375 441 1709 441 
Q 2250 441 2565 725 
Q 2881 1009 2881 1497 
Q 2881 1984 2565 2268 
Q 2250 2553 1709 2553 
Q 1456 2553 1204 2497 
Q 953 2441 691 2322 
L 691 4666 
z
" transform="scale(0.015625)"/>
       </defs>
       <use xlink:href="#DejaVuSans-35"/>
       <use xlink:href="#DejaVuSans-30" x="63.623047"/>
       <use xlink:href="#DejaVuSans-30" x="127.246094"/>
      </g>
     </g>
    </g>
    <g id="xtick_7">
     <g id="line2d_7">
      <path d="M 403.758954 309.78 
L 403.758954 29.04 
" clip-path="url(#p86ff391a6a)" style="fill: none; stroke: #ffffff; stroke-linecap: round"/>
     </g>
     <g id="text_7">
      <!-- 600 -->
      <g style="fill: #262626" transform="translate(393.260829 327.638281) scale(0.11 -0.11)">
       <defs>
        <path id="DejaVuSans-36" d="M 2113 2584 
Q 1688 2584 1439 2293 
Q 1191 2003 1191 1497 
Q 1191 994 1439 701 
Q 1688 409 2113 409 
Q 2538 409 2786 701 
Q 3034 994 3034 1497 
Q 3034 2003 2786 2293 
Q 2538 2584 2113 2584 
z
M 3366 4563 
L 3366 3988 
Q 3128 4100 2886 4159 
Q 2644 4219 2406 4219 
Q 1781 4219 1451 3797 
Q 1122 3375 1075 2522 
Q 1259 2794 1537 2939 
Q 1816 3084 2150 3084 
Q 2853 3084 3261 2657 
Q 3669 2231 3669 1497 
Q 3669 778 3244 343 
Q 2819 -91 2113 -91 
Q 1303 -91 875 529 
Q 447 1150 447 2328 
Q 447 3434 972 4092 
Q 1497 4750 2381 4750 
Q 2619 4750 2861 4703 
Q 3103 4656 3366 4563 
z
" transform="scale(0.015625)"/>
       </defs>
       <use xlink:href="#DejaVuSans-36"/>
       <use xlink:href="#DejaVuSans-30" x="63.623047"/>
       <use xlink:href="#DejaVuSans-30" x="127.246094"/>
      </g>
     </g>
    </g>
    <g id="xtick_8">
     <g id="line2d_8">
      <path d="M 456.331209 309.78 
L 456.331209 29.04 
" clip-path="url(#p86ff391a6a)" style="fill: none; stroke: #ffffff; stroke-linecap: round"/>
     </g>
     <g id="text_8">
      <!-- 700 -->
      <g style="fill: #262626" transform="translate(445.833084 327.638281) scale(0.11 -0.11)">
       <defs>
        <path id="DejaVuSans-37" d="M 525 4666 
L 3525 4666 
L 3525 4397 
L 1831 0 
L 1172 0 
L 2766 4134 
L 525 4134 
L 525 4666 
z
" transform="scale(0.015625)"/>
       </defs>
       <use xlink:href="#DejaVuSans-37"/>
       <use xlink:href="#DejaVuSans-30" x="63.623047"/>
       <use xlink:href="#DejaVuSans-30" x="127.246094"/>
      </g>
     </g>
    </g>
    <g id="text_9">
     <!-- Depth -->
     <g style="fill: #262626" transform="translate(245.90399 343.044062) scale(0.12 -0.12)">
      <defs>
       <path id="DejaVuSans-44" d="M 1259 4147 
L 1259 519 
L 2022 519 
Q 2988 519 3436 956 
Q 3884 1394 3884 2338 
Q 3884 3275 3436 3711 
Q 2988 4147 2022 4147 
L 1259 4147 
z
M 628 4666 
L 1925 4666 
Q 3281 4666 3915 4102 
Q 4550 3538 4550 2338 
Q 4550 1131 3912 565 
Q 3275 0 1925 0 
L 628 0 
L 628 4666 
z
" transform="scale(0.015625)"/>
       <path id="DejaVuSans-65" d="M 3597 1894 
L 3597 1613 
L 953 1613 
Q 991 1019 1311 708 
Q 1631 397 2203 397 
Q 2534 397 2845 478 
Q 3156 559 3463 722 
L 3463 178 
Q 3153 47 2828 -22 
Q 2503 -91 2169 -91 
Q 1331 -91 842 396 
Q 353 884 353 1716 
Q 353 2575 817 3079 
Q 1281 3584 2069 3584 
Q 2775 3584 3186 3129 
Q 3597 2675 3597 1894 
z
M 3022 2063 
Q 3016 2534 2758 2815 
Q 2500 3097 2075 3097 
Q 1594 3097 1305 2825 
Q 1016 2553 972 2059 
L 3022 2063 
z
" transform="scale(0.015625)"/>
       <path id="DejaVuSans-70" d="M 1159 525 
L 1159 -1331 
L 581 -1331 
L 581 3500 
L 1159 3500 
L 1159 2969 
Q 1341 3281 1617 3432 
Q 1894 3584 2278 3584 
Q 2916 3584 3314 3078 
Q 3713 2572 3713 1747 
Q 3713 922 3314 415 
Q 2916 -91 2278 -91 
Q 1894 -91 1617 61 
Q 1341 213 1159 525 
z
M 3116 1747 
Q 3116 2381 2855 2742 
Q 2594 3103 2138 3103 
Q 1681 3103 1420 2742 
Q 1159 2381 1159 1747 
Q 1159 1113 1420 752 
Q 1681 391 2138 391 
Q 2594 391 2855 752 
Q 3116 1113 3116 1747 
z
" transform="scale(0.015625)"/>
       <path id="DejaVuSans-74" d="M 1172 4494 
L 1172 3500 
L 2356 3500 
L 2356 3053 
L 1172 3053 
L 1172 1153 
Q 1172 725 1289 603 
Q 1406 481 1766 481 
L 2356 481 
L 2356 0 
L 1766 0 
Q 1100 0 847 248 
Q 594 497 594 1153 
L 594 3053 
L 172 3053 
L 172 3500 
L 594 3500 
L 594 4494 
L 1172 4494 
z
" transform="scale(0.015625)"/>
       <path id="DejaVuSans-68" d="M 3513 2113 
L 3513 0 
L 2938 0 
L 2938 2094 
Q 2938 2591 2744 2837 
Q 2550 3084 2163 3084 
Q 1697 3084 1428 2787 
Q 1159 2491 1159 1978 
L 1159 0 
L 581 0 
L 581 4863 
L 1159 4863 
L 1159 2956 
Q 1366 3272 1645 3428 
Q 1925 3584 2291 3584 
Q 2894 3584 3203 3211 
Q 3513 2838 3513 2113 
z
" transform="scale(0.015625)"/>
      </defs>
      <use xlink:href="#DejaVuSans-44"/>
      <use xlink:href="#DejaVuSans-65" x="77.001953"/>
      <use xlink:href="#DejaVuSans-70" x="138.525391"/>
      <use xlink:href="#DejaVuSans-74" x="202.001953"/>
      <use xlink:href="#DejaVuSans-68" x="241.210938"/>
     </g>
    </g>
   </g>
   <g id="matplotlib.axis_2">
    <g id="ytick_1">
     <g id="line2d_9">
      <path d="M 70.74 309.78 
L 457.61923 309.78 
" clip-path="url(#p86ff391a6a)" style="fill: none; stroke: #ffffff; stroke-linecap: round"/>
     </g>
     <g id="text_10">
      <!-- 0.000 -->
      <g style="fill: #262626" transform="translate(29.749063 313.959141) scale(0.11 -0.11)">
       <defs>
        <path id="DejaVuSans-2e" d="M 684 794 
L 1344 794 
L 1344 0 
L 684 0 
L 684 794 
z
" transform="scale(0.015625)"/>
       </defs>
       <use xlink:href="#DejaVuSans-30"/>
       <use xlink:href="#DejaVuSans-2e" x="63.623047"/>
       <use xlink:href="#DejaVuSans-30" x="95.410156"/>
       <use xlink:href="#DejaVuSans-30" x="159.033203"/>
       <use xlink:href="#DejaVuSans-30" x="222.65625"/>
      </g>
     </g>
    </g>
    <g id="ytick_2">
     <g id="line2d_10">
      <path d="M 70.74 267.983883 
L 457.61923 267.983883 
" clip-path="url(#p86ff391a6a)" style="fill: none; stroke: #ffffff; stroke-linecap: round"/>
     </g>
     <g id="text_11">
      <!-- 0.001 -->
      <g style="fill: #262626" transform="translate(29.749063 272.163024) scale(0.11 -0.11)">
       <use xlink:href="#DejaVuSans-30"/>
       <use xlink:href="#DejaVuSans-2e" x="63.623047"/>
       <use xlink:href="#DejaVuSans-30" x="95.410156"/>
       <use xlink:href="#DejaVuSans-30" x="159.033203"/>
       <use xlink:href="#DejaVuSans-31" x="222.65625"/>
      </g>
     </g>
    </g>
    <g id="ytick_3">
     <g id="line2d_11">
      <path d="M 70.74 226.187767 
L 457.61923 226.187767 
" clip-path="url(#p86ff391a6a)" style="fill: none; stroke: #ffffff; stroke-linecap: round"/>
     </g>
     <g id="text_12">
      <!-- 0.002 -->
      <g style="fill: #262626" transform="translate(29.749063 230.366907) scale(0.11 -0.11)">
       <use xlink:href="#DejaVuSans-30"/>
       <use xlink:href="#DejaVuSans-2e" x="63.623047"/>
       <use xlink:href="#DejaVuSans-30" x="95.410156"/>
       <use xlink:href="#DejaVuSans-30" x="159.033203"/>
       <use xlink:href="#DejaVuSans-32" x="222.65625"/>
      </g>
     </g>
    </g>
    <g id="ytick_4">
     <g id="line2d_12">
      <path d="M 70.74 184.39165 
L 457.61923 184.39165 
" clip-path="url(#p86ff391a6a)" style="fill: none; stroke: #ffffff; stroke-linecap: round"/>
     </g>
     <g id="text_13">
      <!-- 0.003 -->
      <g style="fill: #262626" transform="translate(29.749063 188.570791) scale(0.11 -0.11)">
       <use xlink:href="#DejaVuSans-30"/>
       <use xlink:href="#DejaVuSans-2e" x="63.623047"/>
       <use xlink:href="#DejaVuSans-30" x="95.410156"/>
       <use xlink:href="#DejaVuSans-30" x="159.033203"/>
       <use xlink:href="#DejaVuSans-33" x="222.65625"/>
      </g>
     </g>
    </g>
    <g id="ytick_5">
     <g id="line2d_13">
      <path d="M 70.74 142.595533 
L 457.61923 142.595533 
" clip-path="url(#p86ff391a6a)" style="fill: none; stroke: #ffffff; stroke-linecap: round"/>
     </g>
     <g id="text_14">
      <!-- 0.004 -->
      <g style="fill: #262626" transform="translate(29.749063 146.774674) scale(0.11 -0.11)">
       <use xlink:href="#DejaVuSans-30"/>
       <use xlink:href="#DejaVuSans-2e" x="63.623047"/>
       <use xlink:href="#DejaVuSans-30" x="95.410156"/>
       <use xlink:href="#DejaVuSans-30" x="159.033203"/>
       <use xlink:href="#DejaVuSans-34" x="222.65625"/>
      </g>
     </g>
    </g>
    <g id="ytick_6">
     <g id="line2d_14">
      <path d="M 70.74 100.799417 
L 457.61923 100.799417 
" clip-path="url(#p86ff391a6a)" style="fill: none; stroke: #ffffff; stroke-linecap: round"/>
     </g>
     <g id="text_15">
      <!-- 0.005 -->
      <g style="fill: #262626" transform="translate(29.749063 104.978557) scale(0.11 -0.11)">
       <use xlink:href="#DejaVuSans-30"/>
       <use xlink:href="#DejaVuSans-2e" x="63.623047"/>
       <use xlink:href="#DejaVuSans-30" x="95.410156"/>
       <use xlink:href="#DejaVuSans-30" x="159.033203"/>
       <use xlink:href="#DejaVuSans-35" x="222.65625"/>
      </g>
     </g>
    </g>
    <g id="ytick_7">
     <g id="line2d_15">
      <path d="M 70.74 59.0033 
L 457.61923 59.0033 
" clip-path="url(#p86ff391a6a)" style="fill: none; stroke: #ffffff; stroke-linecap: round"/>
     </g>
     <g id="text_16">
      <!-- 0.006 -->
      <g style="fill: #262626" transform="translate(29.749063 63.182441) scale(0.11 -0.11)">
       <use xlink:href="#DejaVuSans-30"/>
       <use xlink:href="#DejaVuSans-2e" x="63.623047"/>
       <use xlink:href="#DejaVuSans-30" x="95.410156"/>
       <use xlink:href="#DejaVuSans-30" x="159.033203"/>
       <use xlink:href="#DejaVuSans-36" x="222.65625"/>
      </g>
     </g>
    </g>
    <g id="text_17">
     <!-- Density -->
     <g style="fill: #262626" transform="translate(23.253438 192.220313) rotate(-90) scale(0.12 -0.12)">
      <defs>
       <path id="DejaVuSans-6e" d="M 3513 2113 
L 3513 0 
L 2938 0 
L 2938 2094 
Q 2938 2591 2744 2837 
Q 2550 3084 2163 3084 
Q 1697 3084 1428 2787 
Q 1159 2491 1159 1978 
L 1159 0 
L 581 0 
L 581 3500 
L 1159 3500 
L 1159 2956 
Q 1366 3272 1645 3428 
Q 1925 3584 2291 3584 
Q 2894 3584 3203 3211 
Q 3513 2838 3513 2113 
z
" transform="scale(0.015625)"/>
       <path id="DejaVuSans-73" d="M 2834 3397 
L 2834 2853 
Q 2591 2978 2328 3040 
Q 2066 3103 1784 3103 
Q 1356 3103 1142 2972 
Q 928 2841 928 2578 
Q 928 2378 1081 2264 
Q 1234 2150 1697 2047 
L 1894 2003 
Q 2506 1872 2764 1633 
Q 3022 1394 3022 966 
Q 3022 478 2636 193 
Q 2250 -91 1575 -91 
Q 1294 -91 989 -36 
Q 684 19 347 128 
L 347 722 
Q 666 556 975 473 
Q 1284 391 1588 391 
Q 1994 391 2212 530 
Q 2431 669 2431 922 
Q 2431 1156 2273 1281 
Q 2116 1406 1581 1522 
L 1381 1569 
Q 847 1681 609 1914 
Q 372 2147 372 2553 
Q 372 3047 722 3315 
Q 1072 3584 1716 3584 
Q 2034 3584 2315 3537 
Q 2597 3491 2834 3397 
z
" transform="scale(0.015625)"/>
       <path id="DejaVuSans-69" d="M 603 3500 
L 1178 3500 
L 1178 0 
L 603 0 
L 603 3500 
z
M 603 4863 
L 1178 4863 
L 1178 4134 
L 603 4134 
L 603 4863 
z
" transform="scale(0.015625)"/>
       <path id="DejaVuSans-79" d="M 2059 -325 
Q 1816 -950 1584 -1140 
Q 1353 -1331 966 -1331 
L 506 -1331 
L 506 -850 
L 844 -850 
Q 1081 -850 1212 -737 
Q 1344 -625 1503 -206 
L 1606 56 
L 191 3500 
L 800 3500 
L 1894 763 
L 2988 3500 
L 3597 3500 
L 2059 -325 
z
" transform="scale(0.015625)"/>
      </defs>
      <use xlink:href="#DejaVuSans-44"/>
      <use xlink:href="#DejaVuSans-65" x="77.001953"/>
      <use xlink:href="#DejaVuSans-6e" x="138.525391"/>
      <use xlink:href="#DejaVuSans-73" x="201.904297"/>
      <use xlink:href="#DejaVuSans-69" x="254.003906"/>
      <use xlink:href="#DejaVuSans-74" x="281.787109"/>
      <use xlink:href="#DejaVuSans-79" x="320.996094"/>
     </g>
    </g>
   </g>
   <g id="patch_3">
    <path d="M 88.32542 309.78 
L 95.359587 309.78 
L 95.359587 114.688002 
L 88.32542 114.688002 
z
" clip-path="url(#p86ff391a6a)" style="fill: #dd8452; fill-opacity: 0.5; stroke: #ffffff; stroke-width: 0.745036; stroke-linejoin: miter"/>
   </g>
   <g id="patch_4">
    <path d="M 95.359587 309.78 
L 102.393755 309.78 
L 102.393755 73.165377 
L 95.359587 73.165377 
z
" clip-path="url(#p86ff391a6a)" style="fill: #dd8452; fill-opacity: 0.5; stroke: #ffffff; stroke-width: 0.745036; stroke-linejoin: miter"/>
   </g>
   <g id="patch_5">
    <path d="M 102.393755 309.78 
L 109.427923 309.78 
L 109.427923 114.247085 
L 102.393755 114.247085 
z
" clip-path="url(#p86ff391a6a)" style="fill: #dd8452; fill-opacity: 0.5; stroke: #ffffff; stroke-width: 0.745036; stroke-linejoin: miter"/>
   </g>
   <g id="patch_6">
    <path d="M 109.427923 309.78 
L 116.462091 309.78 
L 116.462091 159.261048 
L 109.427923 159.261048 
z
" clip-path="url(#p86ff391a6a)" style="fill: #dd8452; fill-opacity: 0.5; stroke: #ffffff; stroke-width: 0.745036; stroke-linejoin: miter"/>
   </g>
   <g id="patch_7">
    <path d="M 116.462091 309.78 
L 123.496259 309.78 
L 123.496259 190.660593 
L 116.462091 190.660593 
z
" clip-path="url(#p86ff391a6a)" style="fill: #dd8452; fill-opacity: 0.5; stroke: #ffffff; stroke-width: 0.745036; stroke-linejoin: miter"/>
   </g>
   <g id="patch_8">
    <path d="M 123.496259 309.78 
L 130.530426 309.78 
L 130.530426 213.034849 
L 123.496259 213.034849 
z
" clip-path="url(#p86ff391a6a)" style="fill: #dd8452; fill-opacity: 0.5; stroke: #ffffff; stroke-width: 0.745036; stroke-linejoin: miter"/>
   </g>
   <g id="patch_9">
    <path d="M 130.530426 309.78 
L 137.564594 309.78 
L 137.564594 242.23881 
L 130.530426 242.23881 
z
" clip-path="url(#p86ff391a6a)" style="fill: #dd8452; fill-opacity: 0.5; stroke: #ffffff; stroke-width: 0.745036; stroke-linejoin: miter"/>
   </g>
   <g id="patch_10">
    <path d="M 137.564594 309.78 
L 144.598762 309.78 
L 144.598762 255.227847 
L 137.564594 255.227847 
z
" clip-path="url(#p86ff391a6a)" style="fill: #dd8452; fill-opacity: 0.5; stroke: #ffffff; stroke-width: 0.745036; stroke-linejoin: miter"/>
   </g>
   <g id="patch_11">
    <path d="M 144.598762 309.78 
L 151.63293 309.78 
L 151.63293 270.29099 
L 144.598762 270.29099 
z
" clip-path="url(#p86ff391a6a)" style="fill: #dd8452; fill-opacity: 0.5; stroke: #ffffff; stroke-width: 0.745036; stroke-linejoin: miter"/>
   </g>
   <g id="patch_12">
    <path d="M 151.63293 309.78 
L 158.667098 309.78 
L 158.667098 276.868742 
L 151.63293 276.868742 
z
" clip-path="url(#p86ff391a6a)" style="fill: #dd8452; fill-opacity: 0.5; stroke: #ffffff; stroke-width: 0.745036; stroke-linejoin: miter"/>
   </g>
   <g id="patch_13">
    <path d="M 158.667098 309.78 
L 165.701265 309.78 
L 165.701265 277.665091 
L 158.667098 277.665091 
z
" clip-path="url(#p86ff391a6a)" style="fill: #dd8452; fill-opacity: 0.5; stroke: #ffffff; stroke-width: 0.745036; stroke-linejoin: miter"/>
   </g>
   <g id="patch_14">
    <path d="M 165.701265 309.78 
L 172.735433 309.78 
L 172.735433 281.934781 
L 165.701265 281.934781 
z
" clip-path="url(#p86ff391a6a)" style="fill: #dd8452; fill-opacity: 0.5; stroke: #ffffff; stroke-width: 0.745036; stroke-linejoin: miter"/>
   </g>
   <g id="patch_15">
    <path d="M 172.735433 309.78 
L 179.769601 309.78 
L 179.769601 283.675951 
L 172.735433 283.675951 
z
" clip-path="url(#p86ff391a6a)" style="fill: #dd8452; fill-opacity: 0.5; stroke: #ffffff; stroke-width: 0.745036; stroke-linejoin: miter"/>
   </g>
   <g id="patch_16">
    <path d="M 179.769601 309.78 
L 186.803769 309.78 
L 186.803769 283.689448 
L 179.769601 283.689448 
z
" clip-path="url(#p86ff391a6a)" style="fill: #dd8452; fill-opacity: 0.5; stroke: #ffffff; stroke-width: 0.745036; stroke-linejoin: miter"/>
   </g>
   <g id="patch_17">
    <path d="M 186.803769 309.78 
L 193.837937 309.78 
L 193.837937 286.847849 
L 186.803769 286.847849 
z
" clip-path="url(#p86ff391a6a)" style="fill: #dd8452; fill-opacity: 0.5; stroke: #ffffff; stroke-width: 0.745036; stroke-linejoin: miter"/>
   </g>
   <g id="patch_18">
    <path d="M 193.837937 309.78 
L 200.872104 309.78 
L 200.872104 286.726372 
L 193.837937 286.726372 
z
" clip-path="url(#p86ff391a6a)" style="fill: #dd8452; fill-opacity: 0.5; stroke: #ffffff; stroke-width: 0.745036; stroke-linejoin: miter"/>
   </g>
   <g id="patch_19">
    <path d="M 200.872104 309.78 
L 207.906272 309.78 
L 207.906272 290.222209 
L 200.872104 290.222209 
z
" clip-path="url(#p86ff391a6a)" style="fill: #dd8452; fill-opacity: 0.5; stroke: #ffffff; stroke-width: 0.745036; stroke-linejoin: miter"/>
   </g>
   <g id="patch_20">
    <path d="M 207.906272 309.78 
L 214.94044 309.78 
L 214.94044 291.612446 
L 207.906272 291.612446 
z
" clip-path="url(#p86ff391a6a)" style="fill: #dd8452; fill-opacity: 0.5; stroke: #ffffff; stroke-width: 0.745036; stroke-linejoin: miter"/>
   </g>
   <g id="patch_21">
    <path d="M 214.94044 309.78 
L 221.974608 309.78 
L 221.974608 291.351495 
L 214.94044 291.351495 
z
" clip-path="url(#p86ff391a6a)" style="fill: #dd8452; fill-opacity: 0.5; stroke: #ffffff; stroke-width: 0.745036; stroke-linejoin: miter"/>
   </g>
   <g id="patch_22">
    <path d="M 221.974608 309.78 
L 229.008776 309.78 
L 229.008776 294.266942 
L 221.974608 294.266942 
z
" clip-path="url(#p86ff391a6a)" style="fill: #dd8452; fill-opacity: 0.5; stroke: #ffffff; stroke-width: 0.745036; stroke-linejoin: miter"/>
   </g>
   <g id="patch_23">
    <path d="M 229.008776 309.78 
L 236.042944 309.78 
L 236.042944 296.22857 
L 229.008776 296.22857 
z
" clip-path="url(#p86ff391a6a)" style="fill: #dd8452; fill-opacity: 0.5; stroke: #ffffff; stroke-width: 0.745036; stroke-linejoin: miter"/>
   </g>
   <g id="patch_24">
    <path d="M 236.042944 309.78 
L 243.077111 309.78 
L 243.077111 296.948434 
L 236.042944 296.948434 
z
" clip-path="url(#p86ff391a6a)" style="fill: #dd8452; fill-opacity: 0.5; stroke: #ffffff; stroke-width: 0.745036; stroke-linejoin: miter"/>
   </g>
   <g id="patch_25">
    <path d="M 243.077111 309.78 
L 250.111279 309.78 
L 250.111279 299.440961 
L 243.077111 299.440961 
z
" clip-path="url(#p86ff391a6a)" style="fill: #dd8452; fill-opacity: 0.5; stroke: #ffffff; stroke-width: 0.745036; stroke-linejoin: miter"/>
   </g>
   <g id="patch_26">
    <path d="M 250.111279 309.78 
L 257.145447 309.78 
L 257.145447 300.844695 
L 250.111279 300.844695 
z
" clip-path="url(#p86ff391a6a)" style="fill: #dd8452; fill-opacity: 0.5; stroke: #ffffff; stroke-width: 0.745036; stroke-linejoin: miter"/>
   </g>
   <g id="patch_27">
    <path d="M 257.145447 309.78 
L 264.179615 309.78 
L 264.179615 303.157256 
L 257.145447 303.157256 
z
" clip-path="url(#p86ff391a6a)" style="fill: #dd8452; fill-opacity: 0.5; stroke: #ffffff; stroke-width: 0.745036; stroke-linejoin: miter"/>
   </g>
   <g id="patch_28">
    <path d="M 264.179615 309.78 
L 271.213783 309.78 
L 271.213783 304.569988 
L 264.179615 304.569988 
z
" clip-path="url(#p86ff391a6a)" style="fill: #dd8452; fill-opacity: 0.5; stroke: #ffffff; stroke-width: 0.745036; stroke-linejoin: miter"/>
   </g>
   <g id="patch_29">
    <path d="M 271.213783 309.78 
L 278.24795 309.78 
L 278.24795 305.334843 
L 271.213783 305.334843 
z
" clip-path="url(#p86ff391a6a)" style="fill: #dd8452; fill-opacity: 0.5; stroke: #ffffff; stroke-width: 0.745036; stroke-linejoin: miter"/>
   </g>
   <g id="patch_30">
    <path d="M 278.24795 309.78 
L 285.282118 309.78 
L 285.282118 306.135691 
L 278.24795 306.135691 
z
" clip-path="url(#p86ff391a6a)" style="fill: #dd8452; fill-opacity: 0.5; stroke: #ffffff; stroke-width: 0.745036; stroke-linejoin: miter"/>
   </g>
   <g id="patch_31">
    <path d="M 285.282118 309.78 
L 292.316286 309.78 
L 292.316286 306.500122 
L 285.282118 306.500122 
z
" clip-path="url(#p86ff391a6a)" style="fill: #dd8452; fill-opacity: 0.5; stroke: #ffffff; stroke-width: 0.745036; stroke-linejoin: miter"/>
   </g>
   <g id="patch_32">
    <path d="M 292.316286 309.78 
L 299.350454 309.78 
L 299.350454 307.179493 
L 292.316286 307.179493 
z
" clip-path="url(#p86ff391a6a)" style="fill: #dd8452; fill-opacity: 0.5; stroke: #ffffff; stroke-width: 0.745036; stroke-linejoin: miter"/>
   </g>
   <g id="patch_33">
    <path d="M 299.350454 309.78 
L 306.384622 309.78 
L 306.384622 307.525928 
L 299.350454 307.525928 
z
" clip-path="url(#p86ff391a6a)" style="fill: #dd8452; fill-opacity: 0.5; stroke: #ffffff; stroke-width: 0.745036; stroke-linejoin: miter"/>
   </g>
   <g id="patch_34">
    <path d="M 306.384622 309.78 
L 313.418789 309.78 
L 313.418789 307.737387 
L 306.384622 307.737387 
z
" clip-path="url(#p86ff391a6a)" style="fill: #dd8452; fill-opacity: 0.5; stroke: #ffffff; stroke-width: 0.745036; stroke-linejoin: miter"/>
   </g>
   <g id="patch_35">
    <path d="M 313.418789 309.78 
L 320.452957 309.78 
L 320.452957 308.164806 
L 313.418789 308.164806 
z
" clip-path="url(#p86ff391a6a)" style="fill: #dd8452; fill-opacity: 0.5; stroke: #ffffff; stroke-width: 0.745036; stroke-linejoin: miter"/>
   </g>
   <g id="patch_36">
    <path d="M 320.452957 309.78 
L 327.487125 309.78 
L 327.487125 308.731699 
L 320.452957 308.731699 
z
" clip-path="url(#p86ff391a6a)" style="fill: #dd8452; fill-opacity: 0.5; stroke: #ffffff; stroke-width: 0.745036; stroke-linejoin: miter"/>
   </g>
   <g id="patch_37">
    <path d="M 327.487125 309.78 
L 334.521293 309.78 
L 334.521293 308.871172 
L 327.487125 308.871172 
z
" clip-path="url(#p86ff391a6a)" style="fill: #dd8452; fill-opacity: 0.5; stroke: #ffffff; stroke-width: 0.745036; stroke-linejoin: miter"/>
   </g>
   <g id="patch_38">
    <path d="M 334.521293 309.78 
L 341.555461 309.78 
L 341.555461 308.961155 
L 334.521293 308.961155 
z
" clip-path="url(#p86ff391a6a)" style="fill: #dd8452; fill-opacity: 0.5; stroke: #ffffff; stroke-width: 0.745036; stroke-linejoin: miter"/>
   </g>
   <g id="patch_39">
    <path d="M 341.555461 309.78 
L 348.589628 309.78 
L 348.589628 308.943159 
L 341.555461 308.943159 
z
" clip-path="url(#p86ff391a6a)" style="fill: #dd8452; fill-opacity: 0.5; stroke: #ffffff; stroke-width: 0.745036; stroke-linejoin: miter"/>
   </g>
   <g id="patch_40">
    <path d="M 348.589628 309.78 
L 355.623796 309.78 
L 355.623796 309.118625 
L 348.589628 309.118625 
z
" clip-path="url(#p86ff391a6a)" style="fill: #dd8452; fill-opacity: 0.5; stroke: #ffffff; stroke-width: 0.745036; stroke-linejoin: miter"/>
   </g>
   <g id="patch_41">
    <path d="M 355.623796 309.78 
L 362.657964 309.78 
L 362.657964 309.267097 
L 355.623796 309.267097 
z
" clip-path="url(#p86ff391a6a)" style="fill: #dd8452; fill-opacity: 0.5; stroke: #ffffff; stroke-width: 0.745036; stroke-linejoin: miter"/>
   </g>
   <g id="patch_42">
    <path d="M 362.657964 309.78 
L 369.692132 309.78 
L 369.692132 309.379576 
L 362.657964 309.379576 
z
" clip-path="url(#p86ff391a6a)" style="fill: #dd8452; fill-opacity: 0.5; stroke: #ffffff; stroke-width: 0.745036; stroke-linejoin: miter"/>
   </g>
   <g id="patch_43">
    <path d="M 369.692132 309.78 
L 376.7263 309.78 
L 376.7263 309.559542 
L 369.692132 309.559542 
z
" clip-path="url(#p86ff391a6a)" style="fill: #dd8452; fill-opacity: 0.5; stroke: #ffffff; stroke-width: 0.745036; stroke-linejoin: miter"/>
   </g>
   <g id="patch_44">
    <path d="M 376.7263 309.78 
L 383.760468 309.78 
L 383.760468 309.654024 
L 376.7263 309.654024 
z
" clip-path="url(#p86ff391a6a)" style="fill: #dd8452; fill-opacity: 0.5; stroke: #ffffff; stroke-width: 0.745036; stroke-linejoin: miter"/>
   </g>
   <g id="patch_45">
    <path d="M 383.760468 309.78 
L 390.794635 309.78 
L 390.794635 309.654024 
L 383.760468 309.654024 
z
" clip-path="url(#p86ff391a6a)" style="fill: #dd8452; fill-opacity: 0.5; stroke: #ffffff; stroke-width: 0.745036; stroke-linejoin: miter"/>
   </g>
   <g id="patch_46">
    <path d="M 390.794635 309.78 
L 397.828803 309.78 
L 397.828803 309.67652 
L 390.794635 309.67652 
z
" clip-path="url(#p86ff391a6a)" style="fill: #dd8452; fill-opacity: 0.5; stroke: #ffffff; stroke-width: 0.745036; stroke-linejoin: miter"/>
   </g>
   <g id="patch_47">
    <path d="M 397.828803 309.78 
L 404.862971 309.78 
L 404.862971 309.762003 
L 397.828803 309.762003 
z
" clip-path="url(#p86ff391a6a)" style="fill: #dd8452; fill-opacity: 0.5; stroke: #ffffff; stroke-width: 0.745036; stroke-linejoin: miter"/>
   </g>
   <g id="patch_48">
    <path d="M 404.862971 309.78 
L 411.897139 309.78 
L 411.897139 309.78 
L 404.862971 309.78 
z
" clip-path="url(#p86ff391a6a)" style="fill: #dd8452; fill-opacity: 0.5; stroke: #ffffff; stroke-width: 0.745036; stroke-linejoin: miter"/>
   </g>
   <g id="patch_49">
    <path d="M 411.897139 309.78 
L 418.931307 309.78 
L 418.931307 309.78 
L 411.897139 309.78 
z
" clip-path="url(#p86ff391a6a)" style="fill: #dd8452; fill-opacity: 0.5; stroke: #ffffff; stroke-width: 0.745036; stroke-linejoin: miter"/>
   </g>
   <g id="patch_50">
    <path d="M 418.931307 309.78 
L 425.965474 309.78 
L 425.965474 309.78 
L 418.931307 309.78 
z
" clip-path="url(#p86ff391a6a)" style="fill: #dd8452; fill-opacity: 0.5; stroke: #ffffff; stroke-width: 0.745036; stroke-linejoin: miter"/>
   </g>
   <g id="patch_51">
    <path d="M 425.965474 309.78 
L 432.999642 309.78 
L 432.999642 309.78 
L 425.965474 309.78 
z
" clip-path="url(#p86ff391a6a)" style="fill: #dd8452; fill-opacity: 0.5; stroke: #ffffff; stroke-width: 0.745036; stroke-linejoin: miter"/>
   </g>
   <g id="patch_52">
    <path d="M 432.999642 309.78 
L 440.03381 309.78 
L 440.03381 309.775501 
L 432.999642 309.775501 
z
" clip-path="url(#p86ff391a6a)" style="fill: #dd8452; fill-opacity: 0.5; stroke: #ffffff; stroke-width: 0.745036; stroke-linejoin: miter"/>
   </g>
   <g id="patch_53">
    <path d="M 88.32542 309.78 
L 95.359587 309.78 
L 95.359587 96.272995 
L 88.32542 96.272995 
z
" clip-path="url(#p86ff391a6a)" style="fill: #4c72b0; fill-opacity: 0.5; stroke: #ffffff; stroke-width: 0.745036; stroke-linejoin: miter"/>
   </g>
   <g id="patch_54">
    <path d="M 95.359587 309.78 
L 102.393755 309.78 
L 102.393755 48.73951 
L 95.359587 48.73951 
z
" clip-path="url(#p86ff391a6a)" style="fill: #4c72b0; fill-opacity: 0.5; stroke: #ffffff; stroke-width: 0.745036; stroke-linejoin: miter"/>
   </g>
   <g id="patch_55">
    <path d="M 102.393755 309.78 
L 109.427923 309.78 
L 109.427923 94.486833 
L 102.393755 94.486833 
z
" clip-path="url(#p86ff391a6a)" style="fill: #4c72b0; fill-opacity: 0.5; stroke: #ffffff; stroke-width: 0.745036; stroke-linejoin: miter"/>
   </g>
   <g id="patch_56">
    <path d="M 109.427923 309.78 
L 116.462091 309.78 
L 116.462091 143.437549 
L 109.427923 143.437549 
z
" clip-path="url(#p86ff391a6a)" style="fill: #4c72b0; fill-opacity: 0.5; stroke: #ffffff; stroke-width: 0.745036; stroke-linejoin: miter"/>
   </g>
   <g id="patch_57">
    <path d="M 116.462091 309.78 
L 123.496259 309.78 
L 123.496259 176.461286 
L 116.462091 176.461286 
z
" clip-path="url(#p86ff391a6a)" style="fill: #4c72b0; fill-opacity: 0.5; stroke: #ffffff; stroke-width: 0.745036; stroke-linejoin: miter"/>
   </g>
   <g id="patch_58">
    <path d="M 123.496259 309.78 
L 130.530426 309.78 
L 130.530426 202.623824 
L 123.496259 202.623824 
z
" clip-path="url(#p86ff391a6a)" style="fill: #4c72b0; fill-opacity: 0.5; stroke: #ffffff; stroke-width: 0.745036; stroke-linejoin: miter"/>
   </g>
   <g id="patch_59">
    <path d="M 130.530426 309.78 
L 137.564594 309.78 
L 137.564594 235.917509 
L 130.530426 235.917509 
z
" clip-path="url(#p86ff391a6a)" style="fill: #4c72b0; fill-opacity: 0.5; stroke: #ffffff; stroke-width: 0.745036; stroke-linejoin: miter"/>
   </g>
   <g id="patch_60">
    <path d="M 137.564594 309.78 
L 144.598762 309.78 
L 144.598762 250.854676 
L 137.564594 250.854676 
z
" clip-path="url(#p86ff391a6a)" style="fill: #4c72b0; fill-opacity: 0.5; stroke: #ffffff; stroke-width: 0.745036; stroke-linejoin: miter"/>
   </g>
   <g id="patch_61">
    <path d="M 144.598762 309.78 
L 151.63293 309.78 
L 151.63293 267.81196 
L 144.598762 267.81196 
z
" clip-path="url(#p86ff391a6a)" style="fill: #4c72b0; fill-opacity: 0.5; stroke: #ffffff; stroke-width: 0.745036; stroke-linejoin: miter"/>
   </g>
   <g id="patch_62">
    <path d="M 151.63293 309.78 
L 158.667098 309.78 
L 158.667098 275.757453 
L 151.63293 275.757453 
z
" clip-path="url(#p86ff391a6a)" style="fill: #4c72b0; fill-opacity: 0.5; stroke: #ffffff; stroke-width: 0.745036; stroke-linejoin: miter"/>
   </g>
   <g id="patch_63">
    <path d="M 158.667098 309.78 
L 165.701265 309.78 
L 165.701265 277.674089 
L 158.667098 277.674089 
z
" clip-path="url(#p86ff391a6a)" style="fill: #4c72b0; fill-opacity: 0.5; stroke: #ffffff; stroke-width: 0.745036; stroke-linejoin: miter"/>
   </g>
   <g id="patch_64">
    <path d="M 165.701265 309.78 
L 172.735433 309.78 
L 172.735433 281.952778 
L 165.701265 281.952778 
z
" clip-path="url(#p86ff391a6a)" style="fill: #4c72b0; fill-opacity: 0.5; stroke: #ffffff; stroke-width: 0.745036; stroke-linejoin: miter"/>
   </g>
   <g id="patch_65">
    <path d="M 172.735433 309.78 
L 179.769601 309.78 
L 179.769601 283.675951 
L 172.735433 283.675951 
z
" clip-path="url(#p86ff391a6a)" style="fill: #4c72b0; fill-opacity: 0.5; stroke: #ffffff; stroke-width: 0.745036; stroke-linejoin: miter"/>
   </g>
   <g id="patch_66">
    <path d="M 179.769601 309.78 
L 186.803769 309.78 
L 186.803769 283.023575 
L 179.769601 283.023575 
z
" clip-path="url(#p86ff391a6a)" style="fill: #4c72b0; fill-opacity: 0.5; stroke: #ffffff; stroke-width: 0.745036; stroke-linejoin: miter"/>
   </g>
   <g id="patch_67">
    <path d="M 186.803769 309.78 
L 193.837937 309.78 
L 193.837937 286.154981 
L 186.803769 286.154981 
z
" clip-path="url(#p86ff391a6a)" style="fill: #4c72b0; fill-opacity: 0.5; stroke: #ffffff; stroke-width: 0.745036; stroke-linejoin: miter"/>
   </g>
   <g id="patch_68">
    <path d="M 193.837937 309.78 
L 200.872104 309.78 
L 200.872104 286.586899 
L 193.837937 286.586899 
z
" clip-path="url(#p86ff391a6a)" style="fill: #4c72b0; fill-opacity: 0.5; stroke: #ffffff; stroke-width: 0.745036; stroke-linejoin: miter"/>
   </g>
   <g id="patch_69">
    <path d="M 200.872104 309.78 
L 207.906272 309.78 
L 207.906272 290.046743 
L 200.872104 290.046743 
z
" clip-path="url(#p86ff391a6a)" style="fill: #4c72b0; fill-opacity: 0.5; stroke: #ffffff; stroke-width: 0.745036; stroke-linejoin: miter"/>
   </g>
   <g id="patch_70">
    <path d="M 207.906272 309.78 
L 214.94044 309.78 
L 214.94044 291.58995 
L 207.906272 291.58995 
z
" clip-path="url(#p86ff391a6a)" style="fill: #4c72b0; fill-opacity: 0.5; stroke: #ffffff; stroke-width: 0.745036; stroke-linejoin: miter"/>
   </g>
   <g id="patch_71">
    <path d="M 214.94044 309.78 
L 221.974608 309.78 
L 221.974608 291.549458 
L 214.94044 291.549458 
z
" clip-path="url(#p86ff391a6a)" style="fill: #4c72b0; fill-opacity: 0.5; stroke: #ffffff; stroke-width: 0.745036; stroke-linejoin: miter"/>
   </g>
   <g id="patch_72">
    <path d="M 221.974608 309.78 
L 229.008776 309.78 
L 229.008776 294.203954 
L 221.974608 294.203954 
z
" clip-path="url(#p86ff391a6a)" style="fill: #4c72b0; fill-opacity: 0.5; stroke: #ffffff; stroke-width: 0.745036; stroke-linejoin: miter"/>
   </g>
   <g id="patch_73">
    <path d="M 229.008776 309.78 
L 236.042944 309.78 
L 236.042944 295.630184 
L 229.008776 295.630184 
z
" clip-path="url(#p86ff391a6a)" style="fill: #4c72b0; fill-opacity: 0.5; stroke: #ffffff; stroke-width: 0.745036; stroke-linejoin: miter"/>
   </g>
   <g id="patch_74">
    <path d="M 236.042944 309.78 
L 243.077111 309.78 
L 243.077111 296.503018 
L 236.042944 296.503018 
z
" clip-path="url(#p86ff391a6a)" style="fill: #4c72b0; fill-opacity: 0.5; stroke: #ffffff; stroke-width: 0.745036; stroke-linejoin: miter"/>
   </g>
   <g id="patch_75">
    <path d="M 243.077111 309.78 
L 250.111279 309.78 
L 250.111279 299.377973 
L 243.077111 299.377973 
z
" clip-path="url(#p86ff391a6a)" style="fill: #4c72b0; fill-opacity: 0.5; stroke: #ffffff; stroke-width: 0.745036; stroke-linejoin: miter"/>
   </g>
   <g id="patch_76">
    <path d="M 250.111279 309.78 
L 257.145447 309.78 
L 257.145447 300.813201 
L 250.111279 300.813201 
z
" clip-path="url(#p86ff391a6a)" style="fill: #4c72b0; fill-opacity: 0.5; stroke: #ffffff; stroke-width: 0.745036; stroke-linejoin: miter"/>
   </g>
   <g id="patch_77">
    <path d="M 257.145447 309.78 
L 264.179615 309.78 
L 264.179615 303.157256 
L 257.145447 303.157256 
z
" clip-path="url(#p86ff391a6a)" style="fill: #4c72b0; fill-opacity: 0.5; stroke: #ffffff; stroke-width: 0.745036; stroke-linejoin: miter"/>
   </g>
   <g id="patch_78">
    <path d="M 264.179615 309.78 
L 271.213783 309.78 
L 271.213783 304.367527 
L 264.179615 304.367527 
z
" clip-path="url(#p86ff391a6a)" style="fill: #4c72b0; fill-opacity: 0.5; stroke: #ffffff; stroke-width: 0.745036; stroke-linejoin: miter"/>
   </g>
   <g id="patch_79">
    <path d="M 271.213783 309.78 
L 278.24795 309.78 
L 278.24795 305.159376 
L 271.213783 305.159376 
z
" clip-path="url(#p86ff391a6a)" style="fill: #4c72b0; fill-opacity: 0.5; stroke: #ffffff; stroke-width: 0.745036; stroke-linejoin: miter"/>
   </g>
   <g id="patch_80">
    <path d="M 278.24795 309.78 
L 285.282118 309.78 
L 285.282118 306.054707 
L 278.24795 306.054707 
z
" clip-path="url(#p86ff391a6a)" style="fill: #4c72b0; fill-opacity: 0.5; stroke: #ffffff; stroke-width: 0.745036; stroke-linejoin: miter"/>
   </g>
   <g id="patch_81">
    <path d="M 285.282118 309.78 
L 292.316286 309.78 
L 292.316286 306.221175 
L 285.282118 306.221175 
z
" clip-path="url(#p86ff391a6a)" style="fill: #4c72b0; fill-opacity: 0.5; stroke: #ffffff; stroke-width: 0.745036; stroke-linejoin: miter"/>
   </g>
   <g id="patch_82">
    <path d="M 292.316286 309.78 
L 299.350454 309.78 
L 299.350454 306.990529 
L 292.316286 306.990529 
z
" clip-path="url(#p86ff391a6a)" style="fill: #4c72b0; fill-opacity: 0.5; stroke: #ffffff; stroke-width: 0.745036; stroke-linejoin: miter"/>
   </g>
   <g id="patch_83">
    <path d="M 299.350454 309.78 
L 306.384622 309.78 
L 306.384622 307.480936 
L 299.350454 307.480936 
z
" clip-path="url(#p86ff391a6a)" style="fill: #4c72b0; fill-opacity: 0.5; stroke: #ffffff; stroke-width: 0.745036; stroke-linejoin: miter"/>
   </g>
   <g id="patch_84">
    <path d="M 306.384622 309.78 
L 313.418789 309.78 
L 313.418789 307.728389 
L 306.384622 307.728389 
z
" clip-path="url(#p86ff391a6a)" style="fill: #4c72b0; fill-opacity: 0.5; stroke: #ffffff; stroke-width: 0.745036; stroke-linejoin: miter"/>
   </g>
   <g id="patch_85">
    <path d="M 313.418789 309.78 
L 320.452957 309.78 
L 320.452957 308.106317 
L 313.418789 308.106317 
z
" clip-path="url(#p86ff391a6a)" style="fill: #4c72b0; fill-opacity: 0.5; stroke: #ffffff; stroke-width: 0.745036; stroke-linejoin: miter"/>
   </g>
   <g id="patch_86">
    <path d="M 320.452957 309.78 
L 327.487125 309.78 
L 327.487125 308.67321 
L 320.452957 308.67321 
z
" clip-path="url(#p86ff391a6a)" style="fill: #4c72b0; fill-opacity: 0.5; stroke: #ffffff; stroke-width: 0.745036; stroke-linejoin: miter"/>
   </g>
   <g id="patch_87">
    <path d="M 327.487125 309.78 
L 334.521293 309.78 
L 334.521293 308.808184 
L 327.487125 308.808184 
z
" clip-path="url(#p86ff391a6a)" style="fill: #4c72b0; fill-opacity: 0.5; stroke: #ffffff; stroke-width: 0.745036; stroke-linejoin: miter"/>
   </g>
   <g id="patch_88">
    <path d="M 334.521293 309.78 
L 341.555461 309.78 
L 341.555461 308.902666 
L 334.521293 308.902666 
z
" clip-path="url(#p86ff391a6a)" style="fill: #4c72b0; fill-opacity: 0.5; stroke: #ffffff; stroke-width: 0.745036; stroke-linejoin: miter"/>
   </g>
   <g id="patch_89">
    <path d="M 341.555461 309.78 
L 348.589628 309.78 
L 348.589628 308.880171 
L 341.555461 308.880171 
z
" clip-path="url(#p86ff391a6a)" style="fill: #4c72b0; fill-opacity: 0.5; stroke: #ffffff; stroke-width: 0.745036; stroke-linejoin: miter"/>
   </g>
   <g id="patch_90">
    <path d="M 348.589628 309.78 
L 355.623796 309.78 
L 355.623796 309.100629 
L 348.589628 309.100629 
z
" clip-path="url(#p86ff391a6a)" style="fill: #4c72b0; fill-opacity: 0.5; stroke: #ffffff; stroke-width: 0.745036; stroke-linejoin: miter"/>
   </g>
   <g id="patch_91">
    <path d="M 355.623796 309.78 
L 362.657964 309.78 
L 362.657964 309.267097 
L 355.623796 309.267097 
z
" clip-path="url(#p86ff391a6a)" style="fill: #4c72b0; fill-opacity: 0.5; stroke: #ffffff; stroke-width: 0.745036; stroke-linejoin: miter"/>
   </g>
   <g id="patch_92">
    <path d="M 362.657964 309.78 
L 369.692132 309.78 
L 369.692132 309.379576 
L 362.657964 309.379576 
z
" clip-path="url(#p86ff391a6a)" style="fill: #4c72b0; fill-opacity: 0.5; stroke: #ffffff; stroke-width: 0.745036; stroke-linejoin: miter"/>
   </g>
   <g id="patch_93">
    <path d="M 369.692132 309.78 
L 376.7263 309.78 
L 376.7263 309.532547 
L 369.692132 309.532547 
z
" clip-path="url(#p86ff391a6a)" style="fill: #4c72b0; fill-opacity: 0.5; stroke: #ffffff; stroke-width: 0.745036; stroke-linejoin: miter"/>
   </g>
   <g id="patch_94">
    <path d="M 376.7263 309.78 
L 383.760468 309.78 
L 383.760468 309.595535 
L 376.7263 309.595535 
z
" clip-path="url(#p86ff391a6a)" style="fill: #4c72b0; fill-opacity: 0.5; stroke: #ffffff; stroke-width: 0.745036; stroke-linejoin: miter"/>
   </g>
   <g id="patch_95">
    <path d="M 383.760468 309.78 
L 390.794635 309.78 
L 390.794635 309.591036 
L 383.760468 309.591036 
z
" clip-path="url(#p86ff391a6a)" style="fill: #4c72b0; fill-opacity: 0.5; stroke: #ffffff; stroke-width: 0.745036; stroke-linejoin: miter"/>
   </g>
   <g id="patch_96">
    <path d="M 390.794635 309.78 
L 397.828803 309.78 
L 397.828803 309.618031 
L 390.794635 309.618031 
z
" clip-path="url(#p86ff391a6a)" style="fill: #4c72b0; fill-opacity: 0.5; stroke: #ffffff; stroke-width: 0.745036; stroke-linejoin: miter"/>
   </g>
   <g id="patch_97">
    <path d="M 397.828803 309.78 
L 404.862971 309.78 
L 404.862971 309.699015 
L 397.828803 309.699015 
z
" clip-path="url(#p86ff391a6a)" style="fill: #4c72b0; fill-opacity: 0.5; stroke: #ffffff; stroke-width: 0.745036; stroke-linejoin: miter"/>
   </g>
   <g id="patch_98">
    <path d="M 404.862971 309.78 
L 411.897139 309.78 
L 411.897139 309.730509 
L 404.862971 309.730509 
z
" clip-path="url(#p86ff391a6a)" style="fill: #4c72b0; fill-opacity: 0.5; stroke: #ffffff; stroke-width: 0.745036; stroke-linejoin: miter"/>
   </g>
   <g id="patch_99">
    <path d="M 411.897139 309.78 
L 418.931307 309.78 
L 418.931307 309.78 
L 411.897139 309.78 
z
" clip-path="url(#p86ff391a6a)" style="fill: #4c72b0; fill-opacity: 0.5; stroke: #ffffff; stroke-width: 0.745036; stroke-linejoin: miter"/>
   </g>
   <g id="patch_100">
    <path d="M 418.931307 309.78 
L 425.965474 309.78 
L 425.965474 309.78 
L 418.931307 309.78 
z
" clip-path="url(#p86ff391a6a)" style="fill: #4c72b0; fill-opacity: 0.5; stroke: #ffffff; stroke-width: 0.745036; stroke-linejoin: miter"/>
   </g>
   <g id="patch_101">
    <path d="M 425.965474 309.78 
L 432.999642 309.78 
L 432.999642 309.78 
L 425.965474 309.78 
z
" clip-path="url(#p86ff391a6a)" style="fill: #4c72b0; fill-opacity: 0.5; stroke: #ffffff; stroke-width: 0.745036; stroke-linejoin: miter"/>
   </g>
   <g id="patch_102">
    <path d="M 432.999642 309.78 
L 440.03381 309.78 
L 440.03381 309.775501 
L 432.999642 309.775501 
z
" clip-path="url(#p86ff391a6a)" style="fill: #4c72b0; fill-opacity: 0.5; stroke: #ffffff; stroke-width: 0.745036; stroke-linejoin: miter"/>
   </g>
   <g id="line2d_16">
    <path d="M 88.32542 224.635401 
L 91.860177 135.613664 
L 93.627556 98.805172 
L 95.394935 76.38824 
L 97.162314 70.073697 
L 98.929693 76.417738 
L 102.46445 102.395246 
L 104.231829 113.601525 
L 105.999208 122.654659 
L 113.068723 154.895927 
L 118.37086 180.033535 
L 121.905618 195.908406 
L 125.440375 210.684858 
L 127.207754 217.517237 
L 128.975133 223.897974 
L 130.742512 229.812898 
L 132.509891 235.297764 
L 136.044648 245.207038 
L 137.812027 249.675264 
L 139.579406 253.781476 
L 141.346785 257.492724 
L 143.114164 260.816445 
L 144.881543 263.798416 
L 146.648921 266.487538 
L 148.4163 268.905404 
L 150.183679 271.047788 
L 151.951058 272.907341 
L 153.718437 274.489292 
L 155.485816 275.81041 
L 157.253195 276.895205 
L 159.020573 277.779271 
L 162.555331 279.139588 
L 167.857468 280.72333 
L 183.763877 284.923802 
L 189.066014 285.978548 
L 194.36815 287.002854 
L 199.670287 288.395851 
L 204.972423 289.721984 
L 210.27456 290.826573 
L 220.878833 292.729404 
L 226.18097 294.047904 
L 235.017864 296.494212 
L 240.32 297.676167 
L 245.622137 298.923413 
L 257.993789 302.321692 
L 265.063304 303.873693 
L 270.365441 304.868398 
L 273.900198 305.374549 
L 279.202335 305.859831 
L 298.643502 307.235673 
L 323.386806 308.622172 
L 328.688943 308.857544 
L 337.525837 308.938531 
L 351.664868 309.089082 
L 371.106035 309.504493 
L 383.477687 309.656 
L 440.03381 309.77652 
L 440.03381 309.77652 
" clip-path="url(#p86ff391a6a)" style="fill: none; stroke: #dd8452; stroke-width: 1.5; stroke-linecap: round"/>
   </g>
   <g id="line2d_17">
    <path d="M 88.32542 219.715103 
L 91.860177 117.691942 
L 93.627556 74.72408 
L 95.394935 48.889607 
L 97.162314 42.408571 
L 98.929693 50.790742 
L 102.46445 81.384032 
L 104.231829 93.870226 
L 105.999208 103.759651 
L 116.603481 156.284389 
L 123.672996 191.36673 
L 127.207754 207.660392 
L 128.975133 215.049303 
L 130.742512 221.852831 
L 132.509891 228.107134 
L 134.27727 233.892377 
L 137.812027 244.345586 
L 139.579406 249.048189 
L 141.346785 253.352545 
L 143.114164 257.220945 
L 144.881543 260.657783 
L 146.648921 263.71068 
L 148.4163 266.44239 
L 150.183679 268.89862 
L 151.951058 271.097907 
L 153.718437 273.043593 
L 155.485816 274.735543 
L 157.253195 276.173136 
L 159.020573 277.360905 
L 160.787952 278.318856 
L 162.555331 279.086334 
L 166.090089 280.258617 
L 173.159604 282.151723 
L 178.461741 283.341409 
L 185.531256 284.586878 
L 189.066014 285.27012 
L 192.600771 286.174061 
L 201.437666 288.684427 
L 208.507181 290.405522 
L 213.809318 291.526209 
L 227.948348 294.247885 
L 233.250485 295.474351 
L 245.622137 298.79494 
L 254.459031 301.396141 
L 259.761168 302.704915 
L 265.063304 303.765338 
L 272.13282 304.954063 
L 277.434956 305.613372 
L 282.737093 305.999127 
L 293.341366 306.718974 
L 307.480396 307.68114 
L 332.2237 308.854253 
L 351.664868 309.063212 
L 362.269141 309.312209 
L 379.942929 309.582949 
L 440.03381 309.776409 
L 440.03381 309.776409 
" clip-path="url(#p86ff391a6a)" style="fill: none; stroke: #4c72b0; stroke-width: 1.5; stroke-linecap: round"/>
   </g>
   <g id="patch_103">
    <path d="M 70.74 309.78 
L 70.74 29.04 
" style="fill: none; stroke: #ffffff; stroke-width: 1.25; stroke-linejoin: miter; stroke-linecap: square"/>
   </g>
   <g id="patch_104">
    <path d="M 457.61923 309.78 
L 457.61923 29.04 
" style="fill: none; stroke: #ffffff; stroke-width: 1.25; stroke-linejoin: miter; stroke-linecap: square"/>
   </g>
   <g id="patch_105">
    <path d="M 70.74 309.78 
L 457.61923 309.78 
" style="fill: none; stroke: #ffffff; stroke-width: 1.25; stroke-linejoin: miter; stroke-linecap: square"/>
   </g>
   <g id="patch_106">
    <path d="M 70.74 29.04 
L 457.61923 29.04 
" style="fill: none; stroke: #ffffff; stroke-width: 1.25; stroke-linejoin: miter; stroke-linecap: square"/>
   </g>
   <g id="text_18">
    <!-- Distribution of Depths -->
    <g style="fill: #262626" transform="translate(198.178677 23.04) scale(0.12 -0.12)">
     <defs>
      <path id="DejaVuSans-72" d="M 2631 2963 
Q 2534 3019 2420 3045 
Q 2306 3072 2169 3072 
Q 1681 3072 1420 2755 
Q 1159 2438 1159 1844 
L 1159 0 
L 581 0 
L 581 3500 
L 1159 3500 
L 1159 2956 
Q 1341 3275 1631 3429 
Q 1922 3584 2338 3584 
Q 2397 3584 2469 3576 
Q 2541 3569 2628 3553 
L 2631 2963 
z
" transform="scale(0.015625)"/>
      <path id="DejaVuSans-62" d="M 3116 1747 
Q 3116 2381 2855 2742 
Q 2594 3103 2138 3103 
Q 1681 3103 1420 2742 
Q 1159 2381 1159 1747 
Q 1159 1113 1420 752 
Q 1681 391 2138 391 
Q 2594 391 2855 752 
Q 3116 1113 3116 1747 
z
M 1159 2969 
Q 1341 3281 1617 3432 
Q 1894 3584 2278 3584 
Q 2916 3584 3314 3078 
Q 3713 2572 3713 1747 
Q 3713 922 3314 415 
Q 2916 -91 2278 -91 
Q 1894 -91 1617 61 
Q 1341 213 1159 525 
L 1159 0 
L 581 0 
L 581 4863 
L 1159 4863 
L 1159 2969 
z
" transform="scale(0.015625)"/>
      <path id="DejaVuSans-75" d="M 544 1381 
L 544 3500 
L 1119 3500 
L 1119 1403 
Q 1119 906 1312 657 
Q 1506 409 1894 409 
Q 2359 409 2629 706 
Q 2900 1003 2900 1516 
L 2900 3500 
L 3475 3500 
L 3475 0 
L 2900 0 
L 2900 538 
Q 2691 219 2414 64 
Q 2138 -91 1772 -91 
Q 1169 -91 856 284 
Q 544 659 544 1381 
z
M 1991 3584 
L 1991 3584 
z
" transform="scale(0.015625)"/>
      <path id="DejaVuSans-6f" d="M 1959 3097 
Q 1497 3097 1228 2736 
Q 959 2375 959 1747 
Q 959 1119 1226 758 
Q 1494 397 1959 397 
Q 2419 397 2687 759 
Q 2956 1122 2956 1747 
Q 2956 2369 2687 2733 
Q 2419 3097 1959 3097 
z
M 1959 3584 
Q 2709 3584 3137 3096 
Q 3566 2609 3566 1747 
Q 3566 888 3137 398 
Q 2709 -91 1959 -91 
Q 1206 -91 779 398 
Q 353 888 353 1747 
Q 353 2609 779 3096 
Q 1206 3584 1959 3584 
z
" transform="scale(0.015625)"/>
      <path id="DejaVuSans-20" transform="scale(0.015625)"/>
      <path id="DejaVuSans-66" d="M 2375 4863 
L 2375 4384 
L 1825 4384 
Q 1516 4384 1395 4259 
Q 1275 4134 1275 3809 
L 1275 3500 
L 2222 3500 
L 2222 3053 
L 1275 3053 
L 1275 0 
L 697 0 
L 697 3053 
L 147 3053 
L 147 3500 
L 697 3500 
L 697 3744 
Q 697 4328 969 4595 
Q 1241 4863 1831 4863 
L 2375 4863 
z
" transform="scale(0.015625)"/>
     </defs>
     <use xlink:href="#DejaVuSans-44"/>
     <use xlink:href="#DejaVuSans-69" x="77.001953"/>
     <use xlink:href="#DejaVuSans-73" x="104.785156"/>
     <use xlink:href="#DejaVuSans-74" x="156.884766"/>
     <use xlink:href="#DejaVuSans-72" x="196.09375"/>
     <use xlink:href="#DejaVuSans-69" x="237.207031"/>
     <use xlink:href="#DejaVuSans-62" x="264.990234"/>
     <use xlink:href="#DejaVuSans-75" x="328.466797"/>
     <use xlink:href="#DejaVuSans-74" x="391.845703"/>
     <use xlink:href="#DejaVuSans-69" x="431.054688"/>
     <use xlink:href="#DejaVuSans-6f" x="458.837891"/>
     <use xlink:href="#DejaVuSans-6e" x="520.019531"/>
     <use xlink:href="#DejaVuSans-20" x="583.398438"/>
     <use xlink:href="#DejaVuSans-6f" x="615.185547"/>
     <use xlink:href="#DejaVuSans-66" x="676.367188"/>
     <use xlink:href="#DejaVuSans-20" x="711.572266"/>
     <use xlink:href="#DejaVuSans-44" x="743.359375"/>
     <use xlink:href="#DejaVuSans-65" x="820.361328"/>
     <use xlink:href="#DejaVuSans-70" x="881.884766"/>
     <use xlink:href="#DejaVuSans-74" x="945.361328"/>
     <use xlink:href="#DejaVuSans-68" x="984.570312"/>
     <use xlink:href="#DejaVuSans-73" x="1047.949219"/>
    </g>
   </g>
   <g id="legend_1">
    <g id="patch_107">
     <path d="M 334.862667 87.245625 
L 449.91923 87.245625 
Q 452.11923 87.245625 452.11923 85.045625 
L 452.11923 36.74 
Q 452.11923 34.54 449.91923 34.54 
L 334.862667 34.54 
Q 332.662667 34.54 332.662667 36.74 
L 332.662667 85.045625 
Q 332.662667 87.245625 334.862667 87.245625 
z
" style="fill: #eaeaf2; opacity: 0.8; stroke: #cccccc; stroke-linejoin: miter"/>
    </g>
    <g id="text_19">
     <!-- Test Name -->
     <g style="fill: #262626" transform="translate(360.967823 48.058125) scale(0.12 -0.12)">
      <defs>
       <path id="DejaVuSans-54" d="M -19 4666 
L 3928 4666 
L 3928 4134 
L 2272 4134 
L 2272 0 
L 1638 0 
L 1638 4134 
L -19 4134 
L -19 4666 
z
" transform="scale(0.015625)"/>
       <path id="DejaVuSans-4e" d="M 628 4666 
L 1478 4666 
L 3547 763 
L 3547 4666 
L 4159 4666 
L 4159 0 
L 3309 0 
L 1241 3903 
L 1241 0 
L 628 0 
L 628 4666 
z
" transform="scale(0.015625)"/>
       <path id="DejaVuSans-61" d="M 2194 1759 
Q 1497 1759 1228 1600 
Q 959 1441 959 1056 
Q 959 750 1161 570 
Q 1363 391 1709 391 
Q 2188 391 2477 730 
Q 2766 1069 2766 1631 
L 2766 1759 
L 2194 1759 
z
M 3341 1997 
L 3341 0 
L 2766 0 
L 2766 531 
Q 2569 213 2275 61 
Q 1981 -91 1556 -91 
Q 1019 -91 701 211 
Q 384 513 384 1019 
Q 384 1609 779 1909 
Q 1175 2209 1959 2209 
L 2766 2209 
L 2766 2266 
Q 2766 2663 2505 2880 
Q 2244 3097 1772 3097 
Q 1472 3097 1187 3025 
Q 903 2953 641 2809 
L 641 3341 
Q 956 3463 1253 3523 
Q 1550 3584 1831 3584 
Q 2591 3584 2966 3190 
Q 3341 2797 3341 1997 
z
" transform="scale(0.015625)"/>
       <path id="DejaVuSans-6d" d="M 3328 2828 
Q 3544 3216 3844 3400 
Q 4144 3584 4550 3584 
Q 5097 3584 5394 3201 
Q 5691 2819 5691 2113 
L 5691 0 
L 5113 0 
L 5113 2094 
Q 5113 2597 4934 2840 
Q 4756 3084 4391 3084 
Q 3944 3084 3684 2787 
Q 3425 2491 3425 1978 
L 3425 0 
L 2847 0 
L 2847 2094 
Q 2847 2600 2669 2842 
Q 2491 3084 2119 3084 
Q 1678 3084 1418 2786 
Q 1159 2488 1159 1978 
L 1159 0 
L 581 0 
L 581 3500 
L 1159 3500 
L 1159 2956 
Q 1356 3278 1631 3431 
Q 1906 3584 2284 3584 
Q 2666 3584 2933 3390 
Q 3200 3197 3328 2828 
z
" transform="scale(0.015625)"/>
      </defs>
      <use xlink:href="#DejaVuSans-54"/>
      <use xlink:href="#DejaVuSans-65" x="44.083984"/>
      <use xlink:href="#DejaVuSans-73" x="105.607422"/>
      <use xlink:href="#DejaVuSans-74" x="157.707031"/>
      <use xlink:href="#DejaVuSans-20" x="196.916016"/>
      <use xlink:href="#DejaVuSans-4e" x="228.703125"/>
      <use xlink:href="#DejaVuSans-61" x="303.507812"/>
      <use xlink:href="#DejaVuSans-6d" x="364.787109"/>
      <use xlink:href="#DejaVuSans-65" x="462.199219"/>
     </g>
    </g>
    <g id="patch_108">
     <path d="M 337.062667 64.412031 
L 359.062667 64.412031 
L 359.062667 56.712031 
L 337.062667 56.712031 
z
" style="fill: #4c72b0; fill-opacity: 0.5; stroke: #ffffff; stroke-linejoin: miter"/>
    </g>
    <g id="text_20">
     <!-- compbnd -->
     <g style="fill: #262626" transform="translate(367.862667 64.412031) scale(0.11 -0.11)">
      <defs>
       <path id="DejaVuSans-63" d="M 3122 3366 
L 3122 2828 
Q 2878 2963 2633 3030 
Q 2388 3097 2138 3097 
Q 1578 3097 1268 2742 
Q 959 2388 959 1747 
Q 959 1106 1268 751 
Q 1578 397 2138 397 
Q 2388 397 2633 464 
Q 2878 531 3122 666 
L 3122 134 
Q 2881 22 2623 -34 
Q 2366 -91 2075 -91 
Q 1284 -91 818 406 
Q 353 903 353 1747 
Q 353 2603 823 3093 
Q 1294 3584 2113 3584 
Q 2378 3584 2631 3529 
Q 2884 3475 3122 3366 
z
" transform="scale(0.015625)"/>
       <path id="DejaVuSans-64" d="M 2906 2969 
L 2906 4863 
L 3481 4863 
L 3481 0 
L 2906 0 
L 2906 525 
Q 2725 213 2448 61 
Q 2172 -91 1784 -91 
Q 1150 -91 751 415 
Q 353 922 353 1747 
Q 353 2572 751 3078 
Q 1150 3584 1784 3584 
Q 2172 3584 2448 3432 
Q 2725 3281 2906 2969 
z
M 947 1747 
Q 947 1113 1208 752 
Q 1469 391 1925 391 
Q 2381 391 2643 752 
Q 2906 1113 2906 1747 
Q 2906 2381 2643 2742 
Q 2381 3103 1925 3103 
Q 1469 3103 1208 2742 
Q 947 2381 947 1747 
z
" transform="scale(0.015625)"/>
      </defs>
      <use xlink:href="#DejaVuSans-63"/>
      <use xlink:href="#DejaVuSans-6f" x="54.980469"/>
      <use xlink:href="#DejaVuSans-6d" x="116.162109"/>
      <use xlink:href="#DejaVuSans-70" x="213.574219"/>
      <use xlink:href="#DejaVuSans-62" x="277.050781"/>
      <use xlink:href="#DejaVuSans-6e" x="340.527344"/>
      <use xlink:href="#DejaVuSans-64" x="403.90625"/>
     </g>
    </g>
    <g id="patch_109">
     <path d="M 337.062667 80.557969 
L 359.062667 80.557969 
L 359.062667 72.857969 
L 337.062667 72.857969 
z
" style="fill: #dd8452; fill-opacity: 0.5; stroke: #ffffff; stroke-linejoin: miter"/>
    </g>
    <g id="text_21">
     <!-- compbnd+dvs -->
     <g style="fill: #262626" transform="translate(367.862667 80.557969) scale(0.11 -0.11)">
      <defs>
       <path id="DejaVuSans-2b" d="M 2944 4013 
L 2944 2272 
L 4684 2272 
L 4684 1741 
L 2944 1741 
L 2944 0 
L 2419 0 
L 2419 1741 
L 678 1741 
L 678 2272 
L 2419 2272 
L 2419 4013 
L 2944 4013 
z
" transform="scale(0.015625)"/>
       <path id="DejaVuSans-76" d="M 191 3500 
L 800 3500 
L 1894 563 
L 2988 3500 
L 3597 3500 
L 2284 0 
L 1503 0 
L 191 3500 
z
" transform="scale(0.015625)"/>
      </defs>
      <use xlink:href="#DejaVuSans-63"/>
      <use xlink:href="#DejaVuSans-6f" x="54.980469"/>
      <use xlink:href="#DejaVuSans-6d" x="116.162109"/>
      <use xlink:href="#DejaVuSans-70" x="213.574219"/>
      <use xlink:href="#DejaVuSans-62" x="277.050781"/>
      <use xlink:href="#DejaVuSans-6e" x="340.527344"/>
      <use xlink:href="#DejaVuSans-64" x="403.90625"/>
      <use xlink:href="#DejaVuSans-2b" x="467.382812"/>
      <use xlink:href="#DejaVuSans-64" x="551.171875"/>
      <use xlink:href="#DejaVuSans-76" x="614.648438"/>
      <use xlink:href="#DejaVuSans-73" x="673.828125"/>
     </g>
    </g>
   </g>
  </g>
 </g>
 <defs>
  <clipPath id="p86ff391a6a">
   <rect x="70.74" y="29.04" width="386.87923" height="280.74"/>
  </clipPath>
 </defs>
</svg>
